<?xml version="1.0" encoding="UTF-8" standalone="no" ?>
<!DOCTYPE svg PUBLIC "-//W3C//DTD SVG 1.1//EN" "http://www.w3.org/Graphics/SVG/1.1/DTD/svg11.dtd">
<svg xmlns="http://www.w3.org/2000/svg" xmlns:xlink="http://www.w3.org/1999/xlink" version="1.1" width="100%" height="100%" viewBox="0 0 1200 900" xml:space="preserve">
<desc>Created with Fabric.js 5.2.4</desc>
<defs>
</defs>
<rect x="0" y="0" width="100%" height="100%" fill="transparent"></rect>
<g transform="matrix(Infinity NaN NaN Infinity 0 0)" id="248d695c-f3bc-4340-ac08-25c19b95281c"  >
</g>
<g transform="matrix(1 0 0 1 600 450)" id="29d4a049-6eed-4da5-99bd-8c5b3a71facd"  >
<rect style="stroke: none; stroke-width: 1; stroke-dasharray: none; stroke-linecap: butt; stroke-dashoffset: 0; stroke-linejoin: miter; stroke-miterlimit: 4; fill: rgb(255,255,255); fill-rule: nonzero; opacity: 1; visibility: hidden;" vector-effect="non-scaling-stroke"  x="-600" y="-450" rx="0" ry="0" width="100%" height="100%" />
</g>
<g transform="matrix(16.27 0 0 14.73 600 399.88)"  >
<path style="stroke: rgb(0,0,0); stroke-width: 3; stroke-dasharray: none; stroke-linecap: butt; stroke-dashoffset: 0; stroke-linejoin: miter; stroke-miterlimit: 4; fill: rgb(255,255,255); fill-rule: nonzero; opacity: 1;" vector-effect="non-scaling-stroke"  transform=" translate(-50, -50)" d="M 18.315 23.231 L 81.684 23.231 C 84.294 23.231 86.48 25.084000000000003 86.48 27.400000000000002 L 86.48 60.235 C 86.48 62.504 84.29400000000001 64.403 81.684 64.403 L 54.877 64.403 L 38.035 76.77 L 44.42999999999999 64.405 L 18.315 64.405 C 15.650000000000002 64.405 13.519000000000002 62.506 13.519000000000002 60.237 L 13.519000000000002 27.401 C 13.519 25.084 15.651 23.231 18.315 23.231 z" stroke-linecap="round" />
</g>
</svg>
